<?xml version="1.0" standalone="no"?>
<!DOCTYPE svg PUBLIC "-//W3C//DTD SVG 20010904//EN"
 "http://www.w3.org/TR/2001/REC-SVG-20010904/DTD/svg10.dtd">
<svg version="1.0" xmlns="http://www.w3.org/2000/svg"
 width="1024.000000pt" height="1024.000000pt" viewBox="0 0 1024.000000 1024.000000"
 preserveAspectRatio="xMidYMid meet">

<g transform="translate(0.000000,1024.000000) scale(0.100000,-0.100000)"
fill="#000000" stroke="none">
<path d="M3920 7120 c-353 -49 -651 -192 -886 -425 -271 -268 -398 -577 -398
-970 1 -186 18 -299 69 -452 69 -206 168 -366 325 -524 201 -202 451 -335 755
-399 129 -27 399 -38 542 -21 90 11 287 52 297 62 2 2 -4 69 -15 149 -18 145
-53 303 -82 372 l-15 36 -84 -28 c-208 -72 -464 -60 -657 30 -178 84 -334 248
-407 428 -50 125 -59 177 -59 352 0 224 30 331 136 490 116 173 278 285 488
338 101 25 322 22 425 -7 105 -28 205 -75 285 -133 l66 -48 18 22 c10 13 31
41 47 64 30 42 31 54 55 435 l4 76 -77 36 c-188 87 -333 117 -577 122 -104 2
-219 0 -255 -5z"/>
<path d="M5363 6933 c9 -184 43 -478 67 -581 28 -118 53 -170 138 -285 41 -56
81 -118 90 -137 38 -90 31 -239 -15 -320 -22 -39 -26 -58 -27 -145 -2 -121
-15 -154 -109 -276 -36 -48 -75 -106 -87 -129 -50 -98 -75 -254 -95 -587 l-6
-103 609 0 c356 0 654 4 718 11 428 41 694 179 813 419 56 114 75 219 68 365
-7 125 -24 190 -75 289 -66 126 -227 258 -369 303 -29 9 -53 20 -53 25 0 4 15
15 33 24 62 32 170 118 209 168 91 115 130 236 130 406 1 194 -54 335 -177
456 -113 112 -261 177 -487 215 -50 8 -276 13 -727 16 l-654 4 6 -138z m1106
-364 c140 -22 226 -88 257 -195 38 -133 -10 -264 -121 -329 -78 -46 -153 -55
-477 -55 l-298 0 0 295 0 295 288 0 c158 0 316 -5 351 -11z m194 -1098 c95
-31 168 -101 192 -185 22 -74 17 -185 -10 -240 -42 -86 -134 -146 -257 -166
-35 -5 -219 -10 -410 -10 l-348 0 0 316 0 316 383 -4 c364 -4 385 -5 450 -27z"/>
<path d="M4881 6533 c-28 -290 -76 -447 -181 -588 -67 -91 -85 -142 -77 -221
11 -110 75 -165 192 -166 84 0 127 22 185 95 l45 57 66 0 67 0 41 -55 c63 -83
144 -116 236 -95 102 23 149 92 148 219 -1 94 -12 122 -97 235 -37 49 -78 108
-91 130 -35 60 -73 202 -91 340 -19 147 -37 197 -28 81 18 -265 64 -406 176
-550 30 -39 62 -83 70 -100 25 -49 28 -168 4 -200 -13 -18 -14 -18 -9 7 l5 26
-84 -3 c-45 -1 -92 -5 -103 -8 -129 -39 -144 -33 -97 40 76 120 64 226 -31
262 -46 18 -213 14 -253 -5 -84 -40 -85 -161 -3 -275 12 -17 19 -33 16 -35 -3
-3 -10 3 -15 13 -9 16 -23 18 -144 16 l-133 -1 0 -36 c0 -30 -2 -34 -11 -21
-17 23 -25 95 -15 135 4 19 37 78 73 131 73 109 109 204 133 350 15 93 32 359
23 359 -2 0 -10 -62 -17 -137z m375 -536 c28 -33 32 -88 8 -127 -11 -18 -14
-19 -9 -5 4 15 0 13 -18 -9 -21 -26 -26 -27 -47 -16 -33 17 -153 8 -175 -14
-21 -21 -33 -13 -56 38 -29 64 -25 109 13 141 31 26 34 27 146 23 110 -3 114
-4 138 -31z"/>
<path d="M5070 5573 c-14 -3 -40 -16 -58 -30 -18 -13 -53 -34 -79 -45 -41 -18
-58 -20 -146 -14 l-100 7 6 -56 c6 -61 14 -77 100 -195 64 -86 97 -168 116
-285 37 -224 39 -232 40 -185 1 64 -16 205 -34 275 -17 67 -66 172 -119 255
-19 30 -36 66 -38 79 -3 24 -2 24 78 22 88 -2 121 7 188 53 58 39 107 35 201
-14 71 -38 81 -40 160 -40 47 0 85 -2 85 -5 0 -20 -38 -88 -80 -145 -62 -83
-94 -154 -115 -256 -17 -80 -35 -304 -24 -304 3 0 11 44 18 98 25 197 71 319
166 437 79 98 98 138 99 210 1 49 -2 59 -14 57 -8 -2 -49 -6 -91 -9 -86 -6
-136 6 -188 45 -58 43 -108 56 -171 45z"/>
<path d="M4557 5411 c-49 -43 -88 -122 -94 -189 -5 -56 -4 -58 50 -132 67 -92
79 -116 117 -227 34 -100 40 -84 10 26 -25 88 -48 135 -108 219 -42 59 -44 66
-40 117 5 58 46 136 84 162 21 13 23 12 40 -43 10 -31 42 -90 71 -131 l53 -74
0 -93 c0 -78 25 -314 35 -324 2 -2 1 94 -1 212 l-3 216 -40 53 c-45 60 -83
134 -101 195 -7 23 -19 42 -26 42 -7 0 -28 -13 -47 -29z"/>
<path d="M5078 5433 c7 -3 16 -2 19 1 4 3 -2 6 -13 5 -11 0 -14 -3 -6 -6z"/>
<path d="M5436 5363 c-6 -14 -5 -15 5 -6 7 7 10 15 7 18 -3 3 -9 -2 -12 -12z"/>
<path d="M3574 3856 c-13 -22 -14 -29 -2 -53 10 -21 21 -29 48 -31 38 -4 60
16 60 53 0 53 -77 75 -106 31z"/>
<path d="M7410 3851 c0 -11 11 -33 24 -48 22 -25 30 -28 90 -28 72 0 99 16
111 68 7 25 5 27 -24 27 -20 0 -34 -7 -41 -20 -8 -14 -21 -20 -45 -20 -23 0
-41 7 -52 20 -23 26 -63 27 -63 1z"/>
<path d="M1775 3706 c-87 -41 -125 -102 -125 -204 0 -81 36 -151 98 -192 26
-17 57 -33 70 -37 15 -3 21 -11 18 -19 -3 -8 -8 -20 -11 -27 -3 -7 7 -17 26
-24 40 -16 29 -37 -16 -30 -25 4 -35 1 -40 -10 -8 -23 7 -35 57 -40 81 -9 129
61 72 106 l-26 20 23 10 c13 5 39 15 58 22 18 7 47 24 63 37 l29 25 -31 32
-32 33 -35 -24 c-137 -92 -290 92 -179 214 32 35 38 37 93 37 44 0 66 -5 89
-22 l31 -22 32 33 33 34 -34 25 c-48 37 -81 47 -151 47 -44 0 -76 -7 -112 -24z"/>
<path d="M2130 3500 l0 -230 175 0 175 0 0 45 0 45 -120 0 -120 0 0 50 0 50
105 0 105 0 0 45 0 45 -59 -6 c-32 -4 -79 -3 -105 0 l-46 7 0 45 0 44 121 0
120 0 -3 43 -3 42 -172 3 -173 2 0 -230z"/>
<path d="M2564 3721 c-2 -2 -4 -105 -4 -228 l0 -223 55 0 54 0 3 134 3 133
105 -133 105 -133 48 0 47 -1 0 231 0 230 -52 -3 -53 -3 -5 -135 -5 -135 -24
35 c-14 19 -60 78 -103 132 -76 93 -80 96 -124 100 -25 2 -47 1 -50 -1z"/>
<path d="M3196 3715 c-81 -29 -146 -124 -146 -214 0 -90 55 -176 135 -212 61
-28 176 -26 243 6 l52 24 0 91 0 90 -50 0 -50 0 0 -64 c0 -72 -4 -76 -78 -76
-59 0 -103 26 -126 75 -24 50 -17 117 15 152 55 58 118 68 192 28 l47 -24 26
34 c23 30 25 37 13 52 -41 49 -186 69 -273 38z"/>
<path d="M3757 3723 c-4 -3 -7 -24 -7 -45 l0 -38 115 0 c63 0 115 -3 115 -7 0
-5 -54 -73 -120 -152 -100 -121 -120 -150 -120 -178 l0 -33 200 0 200 0 0 45
0 45 -120 0 c-66 0 -120 2 -120 5 0 3 52 67 115 143 106 127 114 140 115 180
l0 42 -183 0 c-101 0 -187 -3 -190 -7z"/>
<path d="M4500 3714 c-84 -36 -134 -115 -134 -214 0 -105 62 -194 154 -221 37
-11 40 -15 35 -39 -5 -24 -2 -29 20 -34 37 -9 25 -31 -16 -29 -30 1 -48 -9
-49 -29 0 -9 58 -28 85 -28 33 0 75 37 75 66 0 13 -9 32 -20 41 -27 23 -25 30
9 38 34 7 121 61 121 74 0 5 -12 23 -26 40 l-26 31 -30 -22 c-17 -11 -51 -23
-77 -25 -117 -11 -191 129 -121 228 39 54 137 63 195 17 l27 -21 30 31 c40 39
33 56 -34 87 -62 29 -162 33 -218 9z"/>
<path d="M4897 3506 c-54 -124 -97 -227 -97 -230 0 -3 23 -6 51 -6 l50 0 21
50 21 50 99 0 99 0 21 -50 21 -50 54 0 c48 0 54 2 49 18 -4 9 -48 113 -98 230
l-91 212 -52 0 -52 0 -96 -224z m181 21 l30 -77 -64 0 c-35 0 -64 1 -64 3 0 2
14 38 49 131 7 16 13 27 16 25 2 -3 17 -39 33 -82z"/>
<path d="M5337 3538 c-4 -106 -4 -210 -1 -230 l7 -38 129 0 c155 0 209 12 243
52 42 50 26 157 -25 173 -20 6 -28 25 -10 25 16 0 40 56 40 94 0 22 -9 45 -25
64 -33 39 -92 52 -239 52 l-113 0 -6 -192z m261 90 c15 -13 16 -50 0 -66 -7
-7 -42 -12 -85 -12 l-73 0 0 43 c0 24 2 46 5 48 8 9 140 -3 153 -13z m13 -178
c24 -13 26 -62 3 -81 -10 -8 -44 -13 -92 -14 l-77 0 -3 53 -3 52 76 0 c42 0
85 -5 96 -10z"/>
<path d="M5812 3563 c4 -188 10 -211 74 -260 29 -21 50 -28 100 -31 85 -6 127
3 165 35 58 49 69 89 69 266 l0 157 -50 0 -50 0 0 -127 c-1 -147 -10 -201 -41
-225 -31 -26 -92 -23 -126 6 l-28 24 -5 159 -5 158 -53 3 -54 3 4 -168z"/>
<path d="M6310 3500 l0 -230 55 0 55 0 0 57 c0 45 5 63 26 90 14 18 29 33 34
33 5 0 39 -40 76 -90 l66 -90 59 0 c46 0 58 3 53 13 -5 6 -45 65 -91 129 -46
64 -83 121 -83 125 0 5 38 46 85 93 47 47 85 88 85 92 0 5 -24 8 -52 8 l-53 0
-102 -102 -103 -103 0 103 0 102 -55 0 -55 0 0 -230z"/>
<path d="M6892 3717 c-91 -33 -146 -118 -145 -222 1 -137 96 -224 246 -225 82
0 143 26 191 81 102 120 57 302 -90 364 -43 18 -154 19 -202 2z m173 -97 c35
-21 65 -81 65 -126 0 -40 -30 -94 -64 -115 -19 -11 -50 -19 -78 -19 -39 0 -54
6 -83 31 -97 85 -44 249 82 249 28 0 58 -8 78 -20z"/>
<path d="M7412 3704 c-176 -88 -168 -343 13 -420 62 -26 160 -22 228 9 l57 26
0 90 0 91 -45 0 -45 0 0 -60 c0 -70 -11 -80 -89 -80 -42 0 -56 5 -86 31 -66
58 -68 144 -5 210 34 36 41 39 91 39 37 0 65 -7 88 -21 l34 -21 30 31 c27 26
29 32 16 47 -48 58 -197 73 -287 28z"/>
<path d="M7800 3501 l0 -231 166 0 165 0 -3 43 -3 42 -110 5 -110 5 0 178 c0
174 0 177 -21 177 -12 0 -36 3 -53 6 l-31 7 0 -232z"/>
<path d="M8160 3582 c0 -85 5 -164 11 -183 29 -86 93 -131 188 -132 71 0 120
16 154 51 49 51 57 88 57 257 l0 155 -50 0 -50 0 0 -140 c0 -191 -18 -230
-104 -230 -22 0 -45 9 -63 24 l-28 24 -5 159 -5 158 -52 3 -53 3 0 -149z"/>
<path d="M3570 3495 l0 -225 55 0 55 0 0 225 0 225 -55 0 -55 0 0 -225z"/>
</g>
</svg>
